<svg width="21" height="23" viewBox="0 0 21 23" fill="none" xmlns="http://www.w3.org/2000/svg">
<g clip-path="url(#clip0_5712_1518)">
<path d="M9.9751 19.1794C5.5651 19.1794 1.9751 15.5894 1.9751 11.1794C1.9751 6.76944 5.5651 3.17944 9.9751 3.17944C14.3851 3.17944 17.9751 6.76944 17.9751 11.1794C17.9751 15.5894 14.3851 19.1794 9.9751 19.1794ZM9.9751 1.17944C8.66188 1.17944 7.36152 1.4381 6.14826 1.94065C4.93501 2.4432 3.83262 3.17979 2.90403 4.10838C1.02867 5.98374 -0.0249023 8.52728 -0.0249023 11.1794C-0.0249023 13.8316 1.02867 16.3751 2.90403 18.2505C3.83262 19.1791 4.93501 19.9157 6.14826 20.4182C7.36152 20.9208 8.66188 21.1794 9.9751 21.1794C12.6273 21.1794 15.1708 20.1259 17.0462 18.2505C18.9215 16.3751 19.9751 13.8316 19.9751 11.1794C19.9751 9.86622 19.7164 8.56586 19.2139 7.35261C18.7113 6.13935 17.9748 5.03696 17.0462 4.10838C16.1176 3.17979 15.0152 2.4432 13.8019 1.94065C12.5887 1.4381 11.2883 1.17944 9.9751 1.17944Z" fill="white"/>
<path d="M7.92374 14.7653V7.59728C7.92389 7.5076 7.94816 7.41961 7.994 7.34253C8.03985 7.26544 8.10558 7.20211 8.18431 7.15917C8.26305 7.11622 8.35188 7.09524 8.44151 7.09843C8.53113 7.10162 8.61825 7.12885 8.69374 7.17728L14.2697 10.7603C14.3403 10.8055 14.3984 10.8678 14.4387 10.9414C14.4789 11.0149 14.5 11.0974 14.5 11.1813C14.5 11.2651 14.4789 11.3476 14.4387 11.4212C14.3984 11.4948 14.3403 11.557 14.2697 11.6023L8.69374 15.1863C8.61825 15.2347 8.53113 15.2619 8.44151 15.2651C8.35188 15.2683 8.26305 15.2473 8.18431 15.2044C8.10558 15.1615 8.03985 15.0981 7.994 15.021C7.94816 14.944 7.92389 14.855 7.92374 14.7653Z" fill="white"/>
</g>
<defs>
<clipPath id="clip0_5712_1518">
<rect width="20.7597" height="21.7033" fill="white" transform="translate(0 0.693848)"/>
</clipPath>
</defs>
</svg>
